<svg width="25" height="25" viewBox="0 0 25 25" fill="none" xmlns="http://www.w3.org/2000/svg">
<g clip-path="url(#clip0)">
<path d="M13.1258 13.3512H11.1768V21.0988H13.1258V13.3512Z" fill="white" fill-opacity="0.7"/>
<path d="M17.0238 13.3512H15.0747V21.0988H17.0238V13.3512Z" fill="white" fill-opacity="0.7"/>
<path d="M9.22788 13.3512H7.27881V21.0988H9.22788V13.3512Z" fill="white" fill-opacity="0.7"/>
<path d="M20.7497 5.44719L17.9035 4.84553L18.0328 4.23371C18.1944 3.46965 18.0487 2.68849 17.6226 2.034C17.1965 1.37956 16.5411 0.93019 15.7771 0.768666L12.4399 0.0632938C10.8628 -0.270105 9.30827 0.741811 8.97482 2.31906L8.84557 2.93068L5.89913 2.30778C5.13589 2.14645 4.35542 2.29201 3.70166 2.71764C3.04785 3.14328 2.59893 3.79807 2.43765 4.56135L1.93359 6.94602L13.8062 9.45584H3.57583V22.0761C3.57583 23.6882 4.88736 24.9998 6.49947 24.9998H17.8041C19.4162 24.9998 20.7278 23.6882 20.7278 22.0761V10.9191L22.4992 11.2935L23.0032 8.90862C23.3361 7.33308 22.3253 5.78025 20.7497 5.44719ZM10.8818 2.72214C10.9929 2.19635 11.5111 1.8591 12.0368 1.97023L15.374 2.6756C15.6287 2.72946 15.8471 2.87922 15.9892 3.09738C16.1312 3.31555 16.1798 3.57595 16.1259 3.83064L15.9966 4.4424L10.7525 3.33386L10.8818 2.72214ZM18.7786 22.0762C18.7786 22.6135 18.3415 23.0507 17.8041 23.0507H6.49942C5.96207 23.0507 5.52491 22.6135 5.52491 22.0762V11.405H18.7786V22.0762V22.0762ZM21.0961 8.5056L20.9951 8.98353L4.24356 5.44221L4.34458 4.96433C4.39825 4.71047 4.54756 4.4926 4.76504 4.35105C4.98257 4.2094 5.24219 4.16106 5.49605 4.21472L20.3466 7.35403C20.8707 7.46492 21.2069 7.98143 21.0961 8.5056Z" fill="white" fill-opacity="0.7"/>
</g>
<defs>
<clipPath id="clip0">
<rect width="25" height="25" fill="white"/>
</clipPath>
</defs>
</svg>
