<svg width="25" height="25" viewBox="0 0 25 25" fill="none" xmlns="http://www.w3.org/2000/svg">
<g clip-path="url(#clip0)">
<path d="M20.1202 6.79763C19.7312 3.27496 16.8921 0.435885 13.3695 0.0468759C11.1888 -0.193942 9.00796 0.500826 7.3863 1.95325C5.76337 3.40675 4.83252 5.48929 4.83252 7.66666V8.64326H6.78572V7.66666C6.78572 6.04392 7.47961 4.49175 8.68941 3.40821C9.91566 2.30994 11.5014 1.80569 13.1551 1.98831C15.7765 2.27781 17.8894 4.39062 18.1789 7.01208C18.4117 9.1203 17.4786 11.1743 15.7437 12.3727C13.1014 14.1978 11.5239 17.1658 11.5239 20.3121V21.2887H13.477V20.3121C13.477 17.8074 14.7393 15.4402 16.8537 13.9798C19.1804 12.3727 20.432 9.62069 20.1202 6.79763Z" fill="white" fill-opacity="0.7"/>
<path d="M13.4776 23.0468H11.5244V25H13.4776V23.0468Z" fill="white" fill-opacity="0.7"/>
</g>
<defs>
<clipPath id="clip0">
<rect width="25" height="25" fill="white"/>
</clipPath>
</defs>
</svg>
