<svg width="25" height="25" viewBox="0 0 25 25" fill="none" xmlns="http://www.w3.org/2000/svg">
<path d="M22.0703 0H2.92969C1.31426 0 0 1.31426 0 2.92969V6.83594H1.95312V2.92969C1.95312 2.39121 2.39121 1.95312 2.92969 1.95312H22.0703C22.6088 1.95312 23.0469 2.39121 23.0469 2.92969V22.0703C23.0469 22.6088 22.6088 23.0469 22.0703 23.0469H2.92969C2.39121 23.0469 1.95312 22.6088 1.95312 22.0703V18.1641H0V22.0703C0 23.6857 1.31426 25 2.92969 25H22.0703C23.6857 25 25 23.6857 25 22.0703V2.92969C25 1.31426 23.6857 0 22.0703 0Z" fill="white" fill-opacity="0.7"/>
<path d="M11.7188 6.4314L10.3377 7.81245L14.0486 11.5234H0V13.4765H14.0486L10.3377 17.1875L11.7188 18.5685L17.7873 12.5L11.7188 6.4314Z" fill="white" fill-opacity="0.7"/>
</svg>
