<svg width="50" height="50" viewBox="0 0 50 50" fill="none" xmlns="http://www.w3.org/2000/svg">
<path d="M6 50C2.68629 50 0 47.3137 0 44L0 6C0 2.68629 2.68629 4.76837e-07 6 4.76837e-07H44C47.3137 4.76837e-07 50 2.68629 50 6V44C50 47.3137 47.3137 50 44 50H6Z" fill="white"/>
<path d="M6 50C2.68629 50 0 47.3137 0 44L0 6C0 2.68629 2.68629 4.76837e-07 6 4.76837e-07H44C47.3137 4.76837e-07 50 2.68629 50 6V44C50 47.3137 47.3137 50 44 50H6Z" fill="white"/>
<path d="M44.1406 0H5.85938C2.62852 0 0 2.62852 0 5.85938V44.1406C0 47.3715 2.62852 50 5.85938 50H44.1406C47.3715 50 50 47.3715 50 44.1406V5.85938C50 2.62852 47.3715 0 44.1406 0ZM46.0938 44.1406C46.0938 45.2176 45.2176 46.0938 44.1406 46.0938H5.85938C4.78242 46.0938 3.90625 45.2176 3.90625 44.1406V5.85938C3.90625 4.78242 4.78242 3.90625 5.85938 3.90625H44.1406C45.2176 3.90625 46.0938 4.78242 46.0938 5.85938V44.1406Z" fill="#5C5A6D"/>
</svg>
