<svg width="50" height="50" viewBox="0 0 50 50" fill="none" xmlns="http://www.w3.org/2000/svg">
<path d="M44 0C47.3137 0 50 2.68629 50 6L50 44C50 47.3137 47.3137 50 44 50L6 50C2.68629 50 3.57628e-07 47.3137 3.57628e-07 44L3.57628e-07 6C3.57628e-07 2.68629 2.68629 0 6 0L44 0Z" fill="white"/>
<path d="M44 0C47.3137 0 50 2.68629 50 6L50 44C50 47.3137 47.3137 50 44 50L6 50C2.68629 50 3.57628e-07 47.3137 3.57628e-07 44L3.57628e-07 6C3.57628e-07 2.68629 2.68629 0 6 0L44 0Z" fill="white"/>
<path d="M5.85938 50L44.1406 50C47.3715 50 50 47.3715 50 44.1406L50 5.85938C50 2.62852 47.3715 0 44.1406 0L5.85938 0C2.62852 0 0 2.62852 0 5.85937L0 44.1406C0 47.3715 2.62852 50 5.85938 50ZM3.90625 5.85937C3.90625 4.78242 4.78242 3.90625 5.85938 3.90625L44.1406 3.90625C45.2176 3.90625 46.0938 4.78242 46.0938 5.85938L46.0938 44.1406C46.0938 45.2176 45.2176 46.0938 44.1406 46.0938L5.85938 46.0937C4.78242 46.0937 3.90625 45.2176 3.90625 44.1406L3.90625 5.85937Z" fill="#5C5A6D"/>
<path d="M10.9393 23.9393C10.3536 24.5251 10.3536 25.4749 10.9393 26.0607L20.4853 35.6066C21.0711 36.1924 22.0208 36.1924 22.6066 35.6066C23.1924 35.0208 23.1924 34.0711 22.6066 33.4853L14.1213 25L22.6066 16.5147C23.1924 15.9289 23.1924 14.9792 22.6066 14.3934C22.0208 13.8076 21.0711 13.8076 20.4853 14.3934L10.9393 23.9393ZM37 23.5L12 23.5V26.5L37 26.5V23.5Z" fill="#5C5A6D"/>
</svg>
